<svg width="82" height="82" viewBox="0 0 82 82" fill="none" xmlns="http://www.w3.org/2000/svg">
<path d="M21.2302 12.8285L29.4448 0M21.2302 12.8285L39.4874 20.5884M21.2302 12.8285L22.9298 24.3597M29.4448 0H42.05M29.4448 0L34.9444 8.22968M51.6809 9.36913L34.9444 8.22968M51.6809 9.36913L42.05 0M51.6809 9.36913L50.5479 24.3597L44.0329 32.7199M51.6809 9.36913L39.4874 20.5884M74.0602 50.2862L62.7282 66.737M74.0602 50.2862L80 80.2862H67.2165M74.0602 50.2862L67.2165 80.2862M74.0602 50.2862L44.0329 32.7199M62.7282 66.737L45.3635 65.9486M62.7282 66.737L67.2165 80.2862M62.7282 66.737L58.5567 80.2862H41.267M14.8454 69.2303L3.52634 50.2862M14.8454 69.2303L38.3995 49.9724M14.8454 69.2303L0 80.2862M14.8454 69.2303L11.9588 80.2862H0M14.8454 69.2303L18.5567 80.2862H41.267M3.52634 50.2862L30.5779 32.7199M3.52634 50.2862L0 80.2862M30.5779 32.7199L39.4874 20.5884M30.5779 32.7199L38.3995 49.9724M30.5779 32.7199H44.0329M30.5779 32.7199L29.4448 20.5884M30.5779 32.7199L22.9298 24.3597M39.4874 20.5884L42.05 0M39.4874 20.5884L44.0329 32.7199M34.9444 8.22968L29.4448 20.5884M44.0329 32.7199L38.3995 49.9724M45.3635 65.9486L38.3995 49.9724M45.3635 65.9486L41.267 80.2862M29.4448 20.5884L22.9298 24.3597" transform="translate(0.674683 0.603516)" stroke="#ffffff"/>
</svg>
