<svg width="82" height="82" viewBox="0 0 82 82" fill="none" xmlns="http://www.w3.org/2000/svg">
<path d="M80 80H55.2M80 80L74.4 74.8M80 80V58M74.4 7.6L68.8 13.2M74.4 13.2L68.8 7.6M6.4 7.6V16H34M6.4 7.6L34 16M6.4 7.6H34V16M6.4 26.8V35.6M6.4 26.8H74.4V35.6H6.4M6.4 26.8L10.8 31.2L6.4 35.6M6.4 44.4V53.2M6.4 44.4H74.4V53.2H6.4M6.4 44.4L10.8 48.8L6.4 53.2M6.4 60.8V72M6.4 60.8H26.4M6.4 60.8L34 72M6.4 72H34M6.4 72L26.4 60.8M34 72V60.8H26.4M34 72L26.4 60.8M55.2 80H0V0H80V58M55.2 80L74.4 74.8M74.4 74.8L80 58" transform="translate(1 1)" stroke="#ffffff"/>
</svg>
