<?xml version="1.0" encoding="utf-8"?>
<!-- Generator: Adobe Illustrator 21.0.0, SVG Export Plug-In . SVG Version: 6.00 Build 0)  -->
<svg version="1.1" id="Слой_1" xmlns="http://www.w3.org/2000/svg" xmlns:xlink="http://www.w3.org/1999/xlink" x="0px" y="0px"
	 viewBox="0 0 231 159.8" style="enable-background:new 0 0 231 159.8;" xml:space="preserve">
<g fill="#ffffff">
	<path d="M53.3,44c-1.5-1.3-2.9-2.6-4.2-3.9c0,0,0,0-0.1-0.1c-2-2-3.9-4-5.7-6c0,0,0,0-0.1-0.1
		c-1.2-1.4-2.3-2.7-3.3-4.1c0,0,0,0,0,0c-0.5-0.7-1-1.4-1.5-2.1L0,31.1v0c0.8,9.6,10.5,16.6,21.5,15.6L53.3,44
		C53.3,44,53.3,44,53.3,44z"/>
	<path d="M59.1,48.9l-35.5,3.1c0.8,9.6,9.3,16.7,18.9,15.9l39.1-3.4C74,59.8,66.2,54.5,59.1,48.9z"/>
	<path d="M88.3,68.4l-31.7,2.7c0.8,9.6,9.3,16.7,18.9,15.9l41.7-3.6C110.4,80.3,99.8,75.1,88.3,68.4z"/>
	<path d="M216.5,24.3C216.5,24.3,216.5,24.3,216.5,24.3c-1.9-1.9-3.9-4.3-5.6-7.6c-5-10-15.1-14.9-24.9-14
		c-3.7,0.3-6.8,1.3-9.3,2.4c-4.7,2.2-8.1,6.5-9.4,11.5c-1.6,6.5-5.7,16.6-14.7,14.1C132.5,17.1,107.9,0,107.9,0l5.8,26.1
		c15.5,3.6,17.8,6.6,17.8,6.6c-47-11.3-86.5-6-86.5-6c22.3,32.7,87.2,59.7,87.2,59.7l-7.1-0.5c-24,35-15.5,73.9-15.5,73.9
		c20.9-4,47.6-30.2,47.6-30.2l-3.7-17.2c-10.1,1.1-17.3-0.3-17.3-0.3s54.8,1.4,61.7-54.8c1.7-16.8,10.5-25.3,24.3-26.5
		c3-0.3,5.9,0,8.7,0.7c0-0.1,0-0.2,0-0.2C225.5,30.5,220.4,28,216.5,24.3z"/>
</g>
</svg>
