<?xml version="1.0" encoding="utf-8"?>
<svg version="1.1" id="Слой_1" xmlns="http://www.w3.org/2000/svg" xmlns:xlink="http://www.w3.org/1999/xlink" x="0px" y="0px"
	 viewBox="0 0 63.4 63.3" height="100" width="100" style="enable-background:new 0 0 63.4 63.3;" xml:space="preserve">
<g fill="#FFFFFF">
	<path d="M60.1,17.4l-8.7,5c1.3,2.8,2.1,5.9,2.1,9.2c0,3.3-0.7,6.4-2.1,9.2l8.7,5c2.2-4.4,3.4-9.2,3.4-14.2S62.3,21.8,60.1,17.4z"/>
	<path d="M25.8,37.2l-8.7,5c2.9,4,7.5,6.8,12.7,7.4V39.5C28.3,39.2,26.9,38.3,25.8,37.2z"/>
	<path d="M17.1,21.1l8.7,5c1.1-1.1,2.5-2,4-2.3V13.7C24.6,14.2,20,17,17.1,21.1z"/>
	<path d="M46.3,42.2l-8.7-5c-1.1,1.1-2.5,2-4,2.3v10.1C38.8,49.1,43.4,46.3,46.3,42.2z"/>
	<path d="M15.2,24.3c-1,2.2-1.6,4.7-1.6,7.4c0,2.6,0.6,5.1,1.6,7.4l8.7-5c-0.2-0.7-0.3-1.5-0.3-2.3c0-0.8,0.1-1.6,0.3-2.3L15.2,24.3
		z"/>
	<path d="M37.6,26.1l8.7-5c-2.9-4-7.5-6.8-12.7-7.4v10.1C35.1,24.1,36.5,25,37.6,26.1z"/>
	<path d="M13.9,44.1l-8.7,5c1.2,1.8,2.5,3.4,4.1,5c5.5,5.5,12.8,8.8,20.6,9.2v-10C23.2,52.8,17.5,49.2,13.9,44.1z"/>
	<path d="M48.2,39c1-2.2,1.6-4.7,1.6-7.4c0-2.6-0.6-5.1-1.6-7.4l-8.7,5c0.2,0.7,0.3,1.5,0.3,2.3c0,0.8-0.1,1.6-0.3,2.3L48.2,39z"/>
	<path d="M33.6,53.3v10c7.8-0.4,15-3.7,20.6-9.2c1.5-1.5,2.9-3.2,4.1-5l-8.7-5C45.9,49.2,40.2,52.8,33.6,53.3z"/>
	<path d="M9.9,31.7c0-3.3,0.7-6.4,2.1-9.2l-8.7-5C1.2,21.8,0,26.6,0,31.7s1.2,9.9,3.4,14.2l8.7-5C10.7,38.1,9.9,34.9,9.9,31.7z"/>
	<path d="M49.5,19.2l8.7-5c-1.2-1.8-2.5-3.4-4.1-5C48.6,3.7,41.3,0.4,33.6,0v10C40.2,10.5,45.9,14.1,49.5,19.2z"/>
	<path d="M5.2,14.2l8.7,5c3.6-5.1,9.4-8.7,16-9.2V0c-7.8,0.4-15,3.7-20.6,9.2C7.7,10.8,6.4,12.4,5.2,14.2z"/>
</g>
</svg>
