<?xml version="1.0" encoding="utf-8"?>
<!-- Generator: Adobe Illustrator 21.0.0, SVG Export Plug-In . SVG Version: 6.00 Build 0)  -->
<svg version="1.1" id="Слой_1" xmlns="http://www.w3.org/2000/svg" xmlns:xlink="http://www.w3.org/1999/xlink" x="0px" y="0px"
	 viewBox="0 0 19.8 14.8" style="enable-background:new 0 0 19.8 14.8;" xml:space="preserve">
<style type="text/css">
	.st0{fill:#AAAAAA;}
	.st1{fill:#0C0C0C;}
	.st2{fill:#211F20;}
	.st3{fill:#C8DAEA;}
	.st4{fill:#A9C9DD;}
	.st5{fill:url(#path2991_1_);}
	.st6{fill:#010002;}
	.st7{fill:#020202;}
</style>
<g id="XMLID_2_">
	<path id="XMLID_4_" class="st0" d="M3.1,8.3h10.4c0.5,0,0.9-0.4,0.9-0.9S14,6.5,13.5,6.5H3.1l1.2-1.2C4.6,5,4.6,4.4,4.2,4
		C3.9,3.7,3.3,3.7,3,4L0.3,6.7c0,0,0,0-0.1,0.1c0,0,0,0,0,0c0,0,0,0,0,0.1c0,0,0,0,0,0c0,0,0,0,0,0.1c0,0,0,0,0,0c0,0,0,0,0,0.1
		c0,0,0,0,0,0c0,0,0,0,0,0.1c0,0,0,0,0,0c0,0,0,0,0,0.1c0,0,0,0,0,0c0,0,0,0,0,0.1c0,0,0,0.1,0,0.1c0,0,0,0.1,0,0.1c0,0,0,0,0,0.1
		c0,0,0,0,0,0c0,0,0,0.1,0,0.1c0,0,0,0,0,0c0,0,0,0.1,0,0.1c0,0,0,0,0,0c0,0,0,0,0,0.1c0,0,0,0,0,0c0,0,0,0,0,0.1c0,0,0,0,0,0
		c0,0,0,0,0,0.1c0,0,0,0,0,0c0,0,0,0,0.1,0.1L3,10.7C3.1,10.9,3.4,11,3.6,11s0.5-0.1,0.6-0.3c0.4-0.4,0.4-0.9,0-1.3L3.1,8.3z"/>
	<path id="XMLID_5_" class="st0" d="M12.5,0C10,0,7.7,1.2,6.3,3.3c-0.3,0.4-0.2,1,0.2,1.3c0.4,0.3,1,0.2,1.3-0.2
		c1-1.5,2.8-2.5,4.6-2.5c3.1,0,5.6,2.5,5.6,5.6S15.5,13,12.5,13c-1.9,0-3.6-0.9-4.6-2.5C7.6,10.1,7,10,6.6,10.3
		c-0.4,0.3-0.5,0.8-0.2,1.3c1.4,2,3.7,3.3,6.1,3.3c4.1,0,7.4-3.3,7.4-7.4S16.5,0,12.5,0z"/>
</g>
</svg>
