<?xml version="1.0" encoding="utf-8"?>
<!-- Generator: Adobe Illustrator 21.0.0, SVG Export Plug-In . SVG Version: 6.00 Build 0)  -->
<svg version="1.1" id="Слой_1" xmlns="http://www.w3.org/2000/svg" xmlns:xlink="http://www.w3.org/1999/xlink" x="0px" y="0px"
	 viewBox="0 0 26.6 34.3" style="enable-background:new 0 0 26.6 34.3;" xml:space="preserve">
<g fill="#ffffff">
  <path d="M9.2,30.2C9.2,30.2,9.2,30.2,9.2,30.2c0,2.3,1.8,4.1,4.1,4.1s4.1-1.8,4.1-4.1c0,0,0,0,0,0H9.2z"/>
  <path d="M26.3,25.1l-3.7-5.4c0-1.6,0-5.7,0-6.7c0-4.5-3.2-8.3-7.5-9.1V1.8c0-1-0.8-1.8-1.8-1.8s-1.8,0.8-1.8,1.8v2.1
    C7.2,4.7,4,8.5,4,13c0,1.8,0,5.7,0,6.7l-3.7,5.4c-0.4,0.6-0.4,1.3-0.1,1.9c0.3,0.6,0.9,1,1.6,1h22.9c0.7,0,1.3-0.4,1.6-1
    C26.7,26.4,26.7,25.7,26.3,25.1z"/>
</g>
</svg>
