<?xml version="1.0" encoding="utf-8"?>
<!-- Generator: Adobe Illustrator 21.0.0, SVG Export Plug-In . SVG Version: 6.00 Build 0)  -->
<svg version="1.1" id="Слой_1" xmlns="http://www.w3.org/2000/svg" xmlns:xlink="http://www.w3.org/1999/xlink" x="0px" y="0px"
	 viewBox="0 0 15.3 15" style="enable-background:new 0 0 15.3 15;" xml:space="preserve">
<g fill="#ff030f">
	<path d="M15.2,7.3L8,0.2C7.9,0.1,7.8,0,7.7,0C7.5,0,7.4,0.1,7.3,0.2L0.2,7.3C0.1,7.4,0,7.5,0,7.7C0,7.8,0.1,7.9,0.2,8l0.8,0.8
		C1,8.9,1.1,9,1.3,9s0.3-0.1,0.4-0.2l6-6l6,6C13.8,8.9,13.9,9,14.1,9c0.1,0,0.3-0.1,0.4-0.2L15.2,8c0.1-0.1,0.2-0.2,0.2-0.4
		C15.3,7.5,15.3,7.4,15.2,7.3z"/>
</g>
<g fill="#ff030f">
	<path d="M15.2,13.3L8,6.2C7.9,6.1,7.8,6,7.7,6C7.5,6,7.4,6.1,7.3,6.2l-7.2,7.2C0.1,13.4,0,13.5,0,13.7c0,0.1,0.1,0.3,0.2,0.4
		l0.8,0.8C1,14.9,1.1,15,1.3,15s0.3-0.1,0.4-0.2l6-6l6,6c0.1,0.1,0.2,0.2,0.4,0.2c0.1,0,0.3-0.1,0.4-0.2l0.8-0.8
		c0.1-0.1,0.2-0.2,0.2-0.4C15.3,13.5,15.3,13.4,15.2,13.3z"/>
</g>
</svg>
