<?xml version="1.0" encoding="utf-8"?>
<!-- Generator: Adobe Illustrator 21.0.0, SVG Export Plug-In . SVG Version: 6.00 Build 0)  -->
<svg version="1.1" id="Слой_1" xmlns="http://www.w3.org/2000/svg" width="134" xmlns:xlink="http://www.w3.org/1999/xlink" x="0px" y="0px"
	 viewBox="0 0 98.7 55.8" style="enable-background:new 0 0 98.7 55.8;" xml:space="preserve">
<g id="XMLID_1_">
	<path fill="#ffffff" id="XMLID_807_" d="M84.9,35.5c3.3,3.2,6.7,6.2,9.7,9.7c1.3,1.6,2.5,3.2,3.5,5c1.3,2.6,0.1,5.4-2.2,5.6l-14.4,0
		c-3.7,0.3-6.7-1.2-9.2-3.7c-2-2-3.8-4.2-5.7-6.3c-0.8-0.9-1.6-1.7-2.6-2.3c-2-1.3-3.7-0.9-4.8,1.2c-1.1,2.1-1.4,4.4-1.5,6.7
		c-0.2,3.4-1.2,4.3-4.6,4.4C45.9,56.1,39,55,32.6,51.4c-5.6-3.2-10-7.8-13.8-13C11.3,28.3,5.6,17.3,0.5,5.9C-0.7,3.4,0.2,2,3,1.9
		c4.7-0.1,9.4-0.1,14.1,0C19,2,20.3,3.1,21,4.9c2.5,6.2,5.6,12.2,9.5,17.7c1,1.5,2.1,2.9,3.6,4c1.7,1.1,2.9,0.8,3.7-1.1
		c0.5-1.2,0.7-2.4,0.8-3.7c0.4-4.3,0.4-8.7-0.2-13c-0.4-2.7-1.9-4.4-4.6-5c-1.4-0.3-1.2-0.8-0.5-1.6C34.5,0.8,35.6,0,37.7,0H54
		c2.6,0.5,3.1,1.7,3.5,4.2l0,18c0,1,0.5,4,2.3,4.6c1.4,0.5,2.4-0.7,3.2-1.6c3.9-4.1,6.7-9,9.1-14.1c1.1-2.2,2-4.5,3-6.8
		c0.7-1.7,1.7-2.6,3.7-2.5l15.6,0c0.5,0,0.9,0,1.4,0.1c2.6,0.4,3.4,1.6,2.5,4.2c-1.3,4-3.8,7.4-6.2,10.8c-2.6,3.6-5.4,7.1-8,10.7
		C81.8,31,82,32.6,84.9,35.5L84.9,35.5z"/>
</g>
</svg>
