<?xml version="1.0" encoding="utf-8"?>
<svg version="1.1" id="Слой_1" xmlns="http://www.w3.org/2000/svg" width="23" xmlns:xlink="http://www.w3.org/1999/xlink" x="0px" y="0px"
	 viewBox="0 0 68.6 130.3" style="enable-background:new 0 0 68.6 130.3;" xml:space="preserve">
<g fill="#ffffff">
	<path d="M24.3,25.7c7.1,0,12.9-5.8,12.9-12.9S31.4,0,24.3,0c-7.1,0-12.9,5.8-12.9,12.9S17.2,25.7,24.3,25.7z"/>
	<path d="M48,27.4c-1.5-1.1-3.3-1.7-5.1-1.7c-7.1,0-7.9,5.2-15.6,20.6L11.1,62.5c-0.9,0.9-1.6,2-2,3.2c-0.8-0.1-1.7,0.1-2.5,0.5
		C2.5,68.5,0,72.8,0,77.4V126c0,2.4,1.9,4.3,4.3,4.3s4.3-1.9,4.3-4.3V77.4c0-1.4,0.7-2.7,1.9-3.5c0.2,0.3,0.4,0.5,0.6,0.7
		c1.7,1.7,3.9,2.5,6,2.5c0,0.1,0,0.2,0,0.3V86c0,2.4,1.9,4.3,4.3,4.3s4.3-1.9,4.3-4.3v-8.6c0-2.4-0.5-3.3-1.1-4.1
		c4.2-4.1,16.3-16.2,17-17.4l4.6-7.5l3.1,8.3c1.4,3.9,2.2,7.9,2.2,11.9v52.9c0,4.7,3.8,8.6,8.6,8.6s8.6-3.8,8.6-8.6V68.6
		C68.6,52.5,60.9,37.1,48,27.4z"/>
</g>
</svg>
