<?xml version="1.0" encoding="utf-8"?>
<svg version="1.1" id="Слой_1" xmlns="http://www.w3.org/2000/svg" width="40" xmlns:xlink="http://www.w3.org/1999/xlink" x="0px" y="0px"
	 viewBox="0 0 55.7 55.8" style="enable-background:new 0 0 55.7 55.8;" xml:space="preserve">
<g fill="#ffffff">
  <path class="st1" d="M47.6,8.2C42.4,3,35.6,0.1,28.3,0c-0.1,0-0.3,0-0.4,0s-0.3,0-0.4,0C20.2,0.1,13.3,3,8.2,8.2
    C2.9,13.4,0,20.4,0,27.9s2.9,14.4,8.2,19.7c5.2,5.2,12,8.1,19.3,8.2c0.1,0,0.3,0,0.4,0c0.1,0,0.3,0,0.4,0c7.3-0.1,14.2-3,19.3-8.2
    c5.3-5.3,8.2-12.3,8.2-19.7C55.7,20.4,52.8,13.4,47.6,8.2z M10.5,10.5c3-3,6.5-5.1,10.5-6.2c-0.9,1-1.7,2.2-2.5,3.5
    c-1,1.6-1.9,3.4-2.6,5.3H8.2C8.9,12.2,9.7,11.3,10.5,10.5z M6.1,16.4h8.5c-0.9,3.1-1.4,6.4-1.5,9.8H3.4
    C3.6,22.8,4.5,19.4,6.1,16.4z M6.1,39.3c-1.6-3-2.5-6.3-2.8-9.8h9.8c0.1,3.4,0.7,6.7,1.5,9.8H6.1z M10.5,45.3
    c-0.8-0.8-1.6-1.7-2.3-2.6h7.5c0.7,1.9,1.6,3.7,2.6,5.3c0.8,1.3,1.7,2.5,2.5,3.5C17.1,50.3,13.5,48.2,10.5,45.3z M26.2,51.8
    c-1.4-0.9-3.2-2.7-5-5.5c-0.7-1.1-1.3-2.3-1.9-3.6h6.8L26.2,51.8L26.2,51.8z M26.2,39.3h-8.1c-1-3.1-1.5-6.4-1.7-9.8h9.8
    L26.2,39.3L26.2,39.3z M26.2,26.2h-9.8c0.1-3.4,0.7-6.7,1.7-9.8h8.1L26.2,26.2L26.2,26.2z M26.2,13.1h-6.8
    c0.6-1.3,1.2-2.5,1.9-3.6c1.7-2.8,3.6-4.6,5-5.5L26.2,13.1L26.2,13.1z M49.6,16.4c1.6,3,2.5,6.3,2.8,9.8h-9.8
    c-0.1-3.4-0.7-6.7-1.5-9.8H49.6z M45.2,10.5c0.8,0.8,1.6,1.7,2.3,2.6H40c-0.7-1.9-1.6-3.7-2.6-5.3c-0.8-1.3-1.7-2.5-2.5-3.5
    C38.7,5.5,42.3,7.6,45.2,10.5z M29.5,4c1.4,0.9,3.2,2.7,5,5.5c0.7,1.1,1.3,2.3,1.9,3.6h-6.8L29.5,4L29.5,4z M29.5,16.4h8.1
    c1,3.1,1.5,6.4,1.7,9.8h-9.8V16.4z M39.3,29.5c-0.1,3.4-0.7,6.7-1.7,9.8h-8.1v-9.8H39.3z M29.5,51.8v-9.1h6.8
    c-0.6,1.3-1.2,2.5-1.9,3.6C32.8,49.1,30.9,50.9,29.5,51.8z M45.2,45.3c-3,3-6.5,5.1-10.5,6.2c0.9-1,1.7-2.2,2.5-3.5
    c1-1.6,1.9-3.4,2.6-5.3h7.5C46.8,43.6,46.1,44.4,45.2,45.3z M49.6,39.3h-8.5c0.9-3.1,1.4-6.4,1.5-9.8h9.8
    C52.1,33,51.2,36.3,49.6,39.3z"/>
</g>
</svg>
