<?xml version="1.0" encoding="utf-8"?>
<!-- Generator: Adobe Illustrator 21.0.0, SVG Export Plug-In . SVG Version: 6.00 Build 0)  -->
<svg version="1.1" id="Слой_1" xmlns="http://www.w3.org/2000/svg" width="74" xmlns:xlink="http://www.w3.org/1999/xlink" x="0px" y="0px"
	 viewBox="0 0 78.1 54.5" style="enable-background:new 0 0 78.1 54.5;" xml:space="preserve">
<g fill="#ffffff">
	<polygon class="st1" points="38.9,0 38.9,54.5 78.1,27.2 	"/>
	<path class="st1" d="M18.3,23.2L14,22.3c-4.1-0.9-5.8-2.1-5.8-4.3c0-2.6,2.4-4.4,6.1-4.4c3.7,0,6.3,1.8,6.6,4.8h7
		C27.7,12,22.6,7.8,14.3,7.8c-7.9,0-13.5,4.3-13.5,10.8c0,5.2,3.2,8.5,9.7,9.9l4.6,1c4.3,1,6,2.2,6,4.5c0,2.6-2.7,4.5-6.6,4.5
		c-3.9,0-7-1.9-7.3-4.8v0H0c0.2,6.6,5.6,10.7,14.2,10.7c8.8,0,14.3-4.3,14.3-11.2C28.5,27.8,25.4,24.7,18.3,23.2z"/>
</g>
</svg>
