<?xml version="1.0" encoding="utf-8"?>
<svg version="1.1" id="Слой_1" xmlns="http://www.w3.org/2000/svg" xmlns:xlink="http://www.w3.org/1999/xlink" x="0px" y="0px"
	 viewBox="0 0 91.1 91.1" style="enable-background:new 0 0 91.1 91.1;" xml:space="preserve">
<path class="st7" d="M68.1,0h-45C10.4,0,0,10.4,0,23.1v45c0,12.7,10.4,23.1,23.1,23.1h45c12.7,0,23.1-10.4,23.1-23.1v-45
	C91.1,10.4,80.8,0,68.1,0z M45.4,64.6c-10.5,0-19.1-8.5-19.1-19.1s8.5-19.1,19.1-19.1S64.4,35,64.4,45.5S55.9,64.6,45.4,64.6z
	 M70.2,26.5c-3.2,0-5.8-2.6-5.8-5.8S67,15,70.2,15s5.8,2.6,5.8,5.8S73.4,26.5,70.2,26.5z"/>
</svg>
