<?xml version="1.0" encoding="utf-8"?>
<svg version="1.1" id="Слой_1" xmlns="http://www.w3.org/2000/svg" xmlns:xlink="http://www.w3.org/1999/xlink" x="0px" y="0px"
	 viewBox="0 0 86.2 80.7" style="enable-background:new 0 0 86.2 80.7;" xml:space="preserve">
<g>
	<path d="M5.4,75.3c0,3,2.4,5.4,5.4,5.4h26.9V43H5.4V75.3z"/>
	<path d="M80.8,21.4h-17c1.2-0.8,2.3-1.7,3-2.4c4.3-4.4,4.3-11.5,0-15.8c-4.2-4.3-11.6-4.2-15.8,0c-2.3,2.3-8.5,11.9-7.7,18.2h-0.4
		c0.9-6.4-5.3-15.9-7.7-18.2c-4.2-4.2-11.6-4.2-15.8,0c-4.3,4.4-4.3,11.5,0,15.8c0.7,0.7,1.8,1.6,3,2.4h-17c-3,0-5.4,2.4-5.4,5.4
		v8.1c0,1.5,1.2,2.7,2.7,2.7h35V26.8h10.8v10.8h35c1.5,0,2.7-1.2,2.7-2.7v-8.1C86.2,23.9,83.7,21.4,80.8,21.4z M37.4,21.3
		c0,0-0.2,0.2-1,0.2c-3.7,0-10.8-3.9-13.1-6.2C21,13,21,9.3,23.2,7c1.1-1.1,2.5-1.7,4.1-1.7c1.5,0,3,0.6,4.1,1.7
		C35,10.6,38.6,20,37.4,21.3z M49.8,21.4c-0.8,0-1-0.2-1-0.2c-1.3-1.3,2.4-10.6,6-14.3c2.2-2.2,6-2.2,8.2,0c2.3,2.3,2.3,6,0,8.2
		C60.6,17.6,53.5,21.4,49.8,21.4z"/>
	<path d="M48.5,80.7h26.9c3,0,5.4-2.4,5.4-5.4V43H48.5V80.7z"/>
</g>
</svg>
