<?xml version="1.0" encoding="utf-8"?>
<svg version="1.1" id="Слой_1" xmlns="http://www.w3.org/2000/svg" xmlns:xlink="http://www.w3.org/1999/xlink" x="0px" y="0px"
	 viewBox="0 0 80.4 77.8" style="enable-background:new 0 0 80.4 77.8;" xml:space="preserve">
<g>
	<path class="st6" d="M79.3,38c1.5-1.6,1.3-4.1-0.3-5.5L43.1,1c-1.6-1.4-4.2-1.4-5.8,0.1l-36,33c-1.6,1.5-1.7,3.9-0.2,5.5L2,40.6
		c1.5,1.6,3.9,1.7,5.4,0.4l2.7-2.4v35.3c0,2.2,1.8,3.9,3.9,3.9h14c2.2,0,3.9-1.8,3.9-3.9V49.2h17.9v24.7c0,2.2,1.5,3.9,3.7,3.9h14.9
		c2.2,0,3.9-1.8,3.9-3.9V39.1c0,0,0.7,0.7,1.7,1.5c0.9,0.8,2.8,0.2,4.3-1.4L79.3,38z"/>
</g>
</svg>
