<?xml version="1.0" encoding="utf-8"?>
<svg version="1.1" id="Слой_1" xmlns="http://www.w3.org/2000/svg" xmlns:xlink="http://www.w3.org/1999/xlink" x="0px" y="0px"
	 viewBox="0 0 93.7 89.9" style="enable-background:new 0 0 93.7 89.9;" xml:space="preserve">
<g>
  <path d="M21.9,17.1L59.2,6.9l-2-4c-1.3-2.6-4.5-3.7-7-2.4L16.8,17.1H21.9z"/>
  <path d="M70.8,7.2c-0.5,0-0.9,0.1-1.4,0.2l-8.8,2.4l-26.8,7.3h30.4h13.3l-1.6-6C75.3,8.8,73.2,7.2,70.8,7.2z"/>
  <path d="M83,20.8h-1.2h-1.6h-1.6H66.1H20.4h-6H9.3H8.4H5.3c-1.7,0-3.1,0.8-4.1,2c-0.4,0.6-0.8,1.2-1,1.9C0.1,25.1,0,25.6,0,26.1
    v0.6v6v52c0,2.9,2.4,5.3,5.3,5.3H83c2.9,0,5.3-2.4,5.3-5.3V70H57.1c-4.9,0-8.9-4-8.9-8.9v-4.8v-1.6V53v-3.6c0-2.4,1-4.6,2.5-6.2
    c1.4-1.4,3.3-2.4,5.3-2.6c0.3,0,0.7-0.1,1.1-0.1h26.9h1.6h1.6h1.1V26.1C88.3,23.2,85.9,20.8,83,20.8z"/>
  <path d="M92,45.5c-0.5-0.5-1.1-0.9-1.8-1.1c-0.5-0.2-1.1-0.3-1.7-0.3h-0.1h-0.1h-1.6h-5.9H57.1c-2.9,0-5.3,2.4-5.3,5.3V52v1.6v1.6
    V61c0,2.9,2.4,5.3,5.3,5.3h31.2h0.1c0.6,0,1.2-0.1,1.7-0.3c0.7-0.2,1.3-0.6,1.8-1.1c1.1-1,1.7-2.3,1.7-3.9V49.3
    C93.7,47.8,93,46.4,92,45.5z M68.1,56.2c0,1.5-1.2,2.6-2.6,2.6h-1.7c-1.5,0-2.6-1.2-2.6-2.6v-1.7c0-0.8,0.4-1.6,1-2.1
    c0.5-0.3,1-0.6,1.6-0.6h0.4h1.3c1.5,0,2.6,1.2,2.6,2.6V56.2L68.1,56.2z"/>
</g>
</svg>
