<svg xmlns="http://www.w3.org/2000/svg" xmlns:xlink="http://www.w3.org/1999/xlink" width="1920" height="685" viewBox="0 0 1920 685"><defs><path id="ku7xa" d="M178 355s229.23-160.756 321 84c91.77 244.756 407.102 175.16 522 115 114.898-60.159 293.497-20.89 413 125 119.503 145.89 372.147 88.803 453 13 80.853-75.803 319.35-182.16 371 19 51.65 201.16-369.732 178.191-625 158-255.268-20.192-255.658-270.248-522-183-266.342 87.247-434.787 132.423-597 223C351.788 999.577 20 761 20 761z"/><path id="ku7xc" d="M200 297s229.23-160.756 321 84c91.77 244.756 407.102 175.16 522 115 114.898-60.16 293.497-20.89 413 125 119.503 145.89 372.147 88.802 453 13 80.853-75.803 319.35-182.16 371 19 51.65 201.16-369.732 178.191-625 158-255.268-20.191-255.658-270.248-522-183-266.342 87.248-434.788 132.423-597 223C373.787 941.577 42 703 42 703z"/><linearGradient id="ku7xb" x1="1069.34" x2="1213" y1="929.52" y2="303.18" gradientUnits="userSpaceOnUse"><stop offset="0" stop-color="#c42037"/><stop offset="1" stop-color="#ff030f"/></linearGradient><linearGradient id="ku7xd" x1="1212.34" x2="1114" y1="871.52" y2="245.18" gradientUnits="userSpaceOnUse"><stop offset="0" stop-color="#ee0727"/><stop offset="1" stop-color="#f3c111"/></linearGradient></defs><g><g transform="translate(-283 -245)"><use fill="url(#ku7xb)" xlink:href="#ku7xa"/></g><g transform="translate(-283 -245)"><use fill="url(#ku7xd)" xlink:href="#ku7xc"/></g></g></svg>