<?xml version="1.0" encoding="UTF-8"?>
<!-- Created with Inkscape (http://www.inkscape.org/) -->
<svg width="301.36mm" height="210.34mm" version="1.1" viewBox="0 0 301.36 210.34" xmlns="http://www.w3.org/2000/svg" xmlns:cc="http://creativecommons.org/ns#" xmlns:dc="http://purl.org/dc/elements/1.1/" xmlns:rdf="http://www.w3.org/1999/02/22-rdf-syntax-ns#" xmlns:xlink="http://www.w3.org/1999/xlink">
 <defs>
  <path id="7n6ha" d="m787.2 3062h825.3c109.08 0 197.5 88.424 197.5 197.5 0 109.08-88.424 197.5-197.5 197.5"/>
  <path id="7n6hb" d="m1614.5 3849h-746c-109.08 0-197.5-88.424-197.5-197.5s88.424-197.5 197.5-197.5h746"/>
  <path id="7n6he" d="m1615 3843a5 5 0 1 1 0 10 5 5 0 0 1 0-10z"/>
  <path id="7n6hg" d="m788 3059a5 5 0 1 1 0 10 5 5 0 0 1 0-10z"/>
  <clipPath id="7n6hc">
   <use width="100%" height="100%" fill="#ffffff" xlink:href="#7n6ha"/>
  </clipPath>
  <clipPath id="7n6hd">
   <use width="100%" height="100%" fill="#ffffff" xlink:href="#7n6hb"/>
  </clipPath>
  <linearGradient id="7n6hf" x1="1610" x2="1620" y1="3852" y2="3844" gradientUnits="userSpaceOnUse">
   <stop stop-color="#fbac49" offset="0"/>
   <stop stop-color="#e63760" offset=".49"/>
   <stop stop-color="#7e3a94" offset="1"/>
  </linearGradient>
  <linearGradient id="7n6hh" x1="783" x2="793" y1="3068" y2="3060" gradientUnits="userSpaceOnUse">
   <stop stop-color="#fbac49" offset="0"/>
   <stop stop-color="#e63760" offset=".49"/>
   <stop stop-color="#7e3a94" offset="1"/>
  </linearGradient>
 </defs>
 <metadata>
  <rdf:RDF>
   <cc:Work rdf:about="">
    <dc:format>image/svg+xml</dc:format>
    <dc:type rdf:resource="http://purl.org/dc/dcmitype/StillImage"/>
    <dc:title/>
   </cc:Work>
  </rdf:RDF>
 </metadata>
 <g transform="translate(106.08 49.321)">
  <g transform="matrix(.26458 0 0 .26458 -106.61 -49.188)" stroke="#ff030f">
   <g transform="translate(-669,-3059)" stroke="#ff030f">
    <use width="100%" height="100%" clip-path="url(#7n6hc)" fill-opacity="0" stroke="#ff030f" stroke-miterlimit="50" stroke-width="6" xlink:href="#7n6ha"/>
    <use width="100%" height="100%" clip-path="url(#7n6hd)" fill-opacity="0" stroke="#ff030f" stroke-miterlimit="50" stroke-width="6" xlink:href="#7n6hb"/>
    <use width="100%" height="100%" fill="url(#7n6hf)" stroke="#ff030f" xlink:href="#7n6he"/>
    <use width="100%" height="100%" fill="url(#7n6hh)" stroke="#ff030f" xlink:href="#7n6hg"/>
   </g>
  </g>
 </g>
</svg>
