<?xml version="1.0" encoding="utf-8"?>
<!-- Generator: Adobe Illustrator 21.0.0, SVG Export Plug-In . SVG Version: 6.00 Build 0)  -->
<svg version="1.1" id="Слой_1" xmlns="http://www.w3.org/2000/svg" xmlns:xlink="http://www.w3.org/1999/xlink" x="0px" y="0px"
	 viewBox="0 0 48.7 42" style="enable-background:new 0 0 48.7 42;" xml:space="preserve">
<g fill="#ff030f">
	<path d="M23.3,21.8c6,0,10.9-4.9,10.9-10.9S29.3,0,23.3,0S12.4,4.9,12.4,10.9C12.4,16.9,17.3,21.8,23.3,21.8z M23.3,2
		c4.9,0,8.9,4,8.9,8.9s-4,8.9-8.9,8.9s-8.9-4-8.9-8.9S18.4,2,23.3,2z"/>
	<path d="M48.4,22.6l-6.7-6.7c-0.4-0.4-1-0.4-1.4,0L29.9,26.2H13c-7.2,0-13,5.8-13,13V42h2v-2.8c0-6.1,4.9-11,11-11h14.9l-5.2,5.2
		c-0.2,0.2-0.3,0.4-0.3,0.7v6.7c0,0.3,0.1,0.5,0.3,0.7c0.2,0.2,0.4,0.3,0.7,0.3h6.7c0.3,0,0.5-0.1,0.7-0.3L48.4,24
		C48.8,23.6,48.8,23,48.4,22.6z M29.7,39.9h-5.3v-5.3l10.8-10.8l5.3,5.3L29.7,39.9z M41.9,27.7l-5.3-5.3L41,18l5.3,5.3L41.9,27.7z"
		/>
</g>
</svg>
