<?xml version="1.0" encoding="utf-8"?>
<svg version="1.1" id="Слой_1" xmlns="http://www.w3.org/2000/svg" xmlns:xlink="http://www.w3.org/1999/xlink" x="0px" y="0px"
	 viewBox="0 0 44 44" style="enable-background:new 0 0 44 44;" xml:space="preserve">
<path d="M22,0C9.8,0,0,9.8,0,22s9.8,22,22,22s22-9.8,22-22S34.2,0,22,0z M34.7,15.1L34.7,15.1l-16,16.6C18.5,31.9,18.3,32,18,32
	c-0.3,0-0.6-0.1-0.7-0.3l-7.8-8.4l-0.2-0.2C9.1,22.9,9,22.6,9,22.4s0.1-0.5,0.3-0.7l1.4-1.4c0.4-0.4,1-0.4,1.4,0l0.1,0.1l5.5,5.9
	c0.2,0.2,0.5,0.2,0.7,0l13.4-13.9h0.1c0.4-0.4,1-0.4,1.4,0l1.4,1.4C35.1,14.1,35.1,14.7,34.7,15.1z"/>
</svg>
