<?xml version="1.0" encoding="utf-8"?>
<!-- Generator: Adobe Illustrator 21.0.0, SVG Export Plug-In . SVG Version: 6.00 Build 0)  -->
<svg version="1.1" id="Слой_1" xmlns="http://www.w3.org/2000/svg" width="188" xmlns:xlink="http://www.w3.org/1999/xlink" x="0px" y="0px"
	 viewBox="0 0 209.6 59.4" style="enable-background:new 0 0 209.6 59.4;" xml:space="preserve">
<g>
	<path fill="#ffffff" d="M5.5,4c4-3.9,6.4-4,6.4-4s0.8-0.1,2.6,0.5c1.9,0.7,2,1.7,2,1.7v28.5c0.2,8-1.7,11-4.1,13.2C11,45,10,45.1,9.8,45.1
		c-0.3,0-0.6,0-0.6-0.5S9.6,43,9.6,43c1.2-3,1.1-8.3,1.1-8.3L10.8,4c0,0,0.1-0.6-0.4-0.4C5.7,7.6,5.1,13.3,5,16
		c-0.1,4.1,1.7,6.2,1.7,6.2s0.5,0.4,0.4,1c0,0.8-0.7,0.7-0.7,0.7c-1.8-0.2-4.6-2.2-5.6-4.6C0,17.7,0,15.8,0,15.8
		C0.1,13.4,1.6,7.9,5.5,4z M209.6,31.2c0,9.2-5.5,9-5.5,9c-5.3,0.2-6.6-5.4-7-11.1c-0.3-4.3,0-9,0-9s0-0.2-0.2,0
		c-1.8,3.2-3,8.1-3.6,11.8c-0.4,2.7-0.5,5-0.5,5s0.1,0.5-0.4,0.8c-2.9,1.3-4.7-0.5-5.4-2.6c-0.9-2-1.4-13.9-1.4-14.5
		s-0.5-0.1-0.5-0.1c-3.9,6.6-4,16.4-4,18.3c0,2-3.4,1.4-3.4,1.4c-2.9-0.2-2.8-1.6-2.8-1.6l-0.1-2.4c-1,1.8-2.8,4.2-5.7,4
		c-4.3-0.3-5.1-4.7-5.2-5.5c0,0-2.1,5.6-8,5.5c-4-0.1-5.6-4.2-5.6-4.2s-1.6,4.3-5.5,4.2c-3.9-0.2-7.2-4.7-6.9-10.6s1.2-8.8,1.2-8.8
		s0.3-0.6-0.2-0.6s-3.9,0.1-3.9,0.1s-1.9,7.7-10.1,17.3c0,0,0.1,3,0.1,6.3c0,6.3-0.8,14.8-9.3,15.5c-7.4-0.5-7-6.2-7-6.2
		c-0.2-1.7,0.9-4.8,5.3-8.9s6.2-5.7,6.2-5.7L120,36c-2.8,4.7-7.1,4.4-7.1,4.4s-3.3,0.7-6.1-4.3c-0.8,1.7-2.7,4.6-5.8,4.3
		c-4.3-0.5-5.2-4.8-5.2-5.5c0,0-2.2,5.6-8.1,5.5C83.7,40.2,82,36,82,36c-0.5-0.8-0.8-2.1-1-2.9c0,0.2-0.1,0.3-0.2,0.5
		c-0.9,2.3-3.2,6.4-6.6,6.5c-6.4,0-6.6-9.9-6.6-9.9c-1.8,4.4-5.4,10-12.2,9.9c-6.7,0-7.5-2.5-7.5-2.8s-0.1-0.7,0.7-1.8
		s1.4-1.6,2-1.6c0.5,0,1.5,0.8,1.5,0.8s1.5,1.4,3.1,1.4c2.1-0.1,2.6-1.8,2.7-3.5c0.2-1.7-1.1-3.6-2.8-5.1s-3-2.7-3-2.7
		c-2.4,4.1-4.3,6.8-5.6,9.2c-3.3,5.3-6.5,6.1-7.7,6c-1.7-0.2-3.4-2-3.5-7.1s0.4-13.9,0.4-14.4s-0.4-0.2-0.4-0.2
		c-6.4,6.8-8.4,20.9-8.4,21.2s-0.6,0.6-1.2,0.6s0.2,0-2.1-0.1s-2.1-4.5-2.1-4.5l0.2-20.9c0-0.7,0.7-1,2.9-0.4s2.1,1.3,2.1,1.3
		l-0.1,12.1c5.6-16.6,9.9-14,12.5-12.8c2.6,1.3,2.2,3.1,2.2,3.1S41,27,40.9,30.3c-0.1,3.2,0.3,4.5,1.1,4.6
		c1.8,0.4,8.2-11.9,8.2-11.9c-2.8-3.1-1.3-6.8,0.9-8.5c1.5-1.1,3.3-1.2,3.3-1.2s2.9-0.2,2.8,2.3c0.1,2.7-2.9,5.9-2.9,5.9
		c5.7,4.1,8.4,6.2,8.8,9.4c0.2,1.5-0.2,2.5-0.2,2.5c4.1-3.5,4.4-7.5,4.4-7.5l0.1-13.2l-6-0.1c0,0-0.5,0-0.5-1.2c0-2.1,1.1-3,1.1-3
		l5.8,0.1c0,0,0.2-6,0.2-6.9c0.2-1.4,1.1-1.6,3.6-0.9s2.5,1.2,2.5,1.2l-0.3,7c0,0,6.3,0.3,7.2,0.4c0.8,0.1,1.1,0.3,0.9,1.7
		s-1,1.8-1,1.8L73.8,13l-0.5,15.3c0,2.4,0.1,8,2.3,8c3.1,0.2,4.9-6.8,4.9-6.8v-0.1c0-1.1,0-2.4,0.1-3.8c0.6-5.6,3.1-12.1,8.8-12.1
		c0,0,3.5-0.1,5.3,3.3l0.1-1.3c0,0-0.1-1.5,2.3-1.1s3.2,1.3,3.2,2.1c0,0-0.4,9.7-0.2,15.5c0.3,3.3,0.9,5.3,2.6,5.2
		c1.5-0.2,2.5-2.2,3.1-3.9c-2.1-17.7,7.6-19.8,7.6-19.8s4.3-0.3,6.2,3.3l0.1-1.2c0,0-0.2-1.6,2.1-1.1c0,0,0.9,0.1,2,0.5
		c1,0.4,1.3,0.6,1.3,1.6c0,0.9-0.2,17.5-0.2,17.5s5-6.8,6.3-13.4c0,0-1.8-1.3-1.6-3.2c0.1-1.9,1.1-4.1,3.8-4.1
		c2.8,0,2.9,2.4,2.5,4.1c0,0,2.3-0.3,4.4-0.8c2-0.5,4.7-0.8,4.9,2.3c0.1,1.1-0.4,2-0.4,2s-1.6,7-1.3,9.8c0.3,2.8,1,7.1,3.2,6.6
		s3-3.6,3-3.6s-0.9-3.6-0.4-7.8c0.6-5.5,3.1-12,8.8-12c0,0,3.5-0.1,5.3,3.3l0.1-1.3c0,0-0.1-1.5,2.3-1.1c2.4,0.4,3.2,1.3,3.2,2.1
		c0,0-0.4,9.7-0.2,15.4c0.3,3.3,0.9,5.3,2.6,5.1c1.6,0,3-2.8,3.9-5.1v-0.8l0.1-16.3c0.1-0.9,1-1,1-1l2,0.3c2.7,0.4,2.4,1.5,2.4,1.5
		v9.2c2-6.3,3-8.6,3.9-10.2c0.8-1.4,3.4-0.5,3.4-0.5s2.8,0.7,2.9,3.3c-0.1,4.3,0.5,11.2,0.5,11.2c0,0.1,0.1,0.1,0.2,0.1V29
		c0.6-4.5,3.1-11.8,4.1-13.7s3.9-0.5,3.9-0.5c3.5,1.2,3,3.3,3,3.3c-1.1,17.9,1.2,19.1,2.5,19.2s2-1.6,2.3-2.4
		c0.3-0.8,0.7-2.6,0.9-3.3c0.2-0.7,0.9-0.7,0.9-0.7S209.6,30.5,209.6,31.2z M90.9,17.5c-1.2,0-4.1,0.9-4.7,8.9
		c-0.5,8.1,1.6,10.1,3.4,10.4c1.8,0.2,5-2.7,5.2-11.2C95,17,90.9,17.5,90.9,17.5z M116.1,17.5c-1.3,0-4.4,1.1-5.1,8.9
		c-0.5,8.2,1.6,10.3,3.5,10.5c1.8,0.2,5.1-2.7,5.3-11.4C119.9,16.9,116.1,17.5,116.1,17.5z M120.4,42.6c-7.1,6.2-7.8,10.6-7.8,10.6
		s-0.7,3.6,2.7,3.8c4.1,0.4,4.8-4.6,4.9-9C120.3,45.9,120.4,42.6,120.4,42.6z M159.5,17.8c-1.2,0-4.1,0.9-4.7,8.9
		c-0.5,8.1,1.6,10.1,3.4,10.4c1.8,0.2,5-2.7,5.2-11.2C163.6,17.3,159.5,17.8,159.5,17.8z"/>
</g>
</svg>
