<svg width="82" height="82" viewBox="0 0 82 82" fill="none" xmlns="http://www.w3.org/2000/svg">
<path d="M40 20L54.1421 25.8579M40 20L25.8579 25.8579M40 20L43.3941 36.6059M54.1421 25.8579L60 40M54.1421 25.8579L44.8 40M60 40L54.1421 54.1421M60 40L43.3941 43.3941M54.1421 54.1421L40 60M54.1421 54.1421L40 44.8M40 60L25.8579 54.1421M40 60L36.6059 43.3941M25.8579 54.1421L20 40M25.8579 54.1421L35.2 40M20 40L25.8579 25.8579M20 40L36.6059 36.6059M25.8579 25.8579L40 35.2M40 35.2L43.3941 36.6059M40 35.2L36.6059 36.6059M43.3941 36.6059L44.8 40M44.8 40L43.3941 43.3941M43.3941 43.3941L40 44.8M40 44.8L36.6059 43.3941M36.6059 43.3941L35.2 40M35.2 40L36.6059 36.6059M64 0L80 16V64L64 80H16L0 64V16L16 0H64ZM64 11.2L68.8 16L64 20.8L59.2 16L64 11.2Z" transform="translate(1 1)" stroke="#ffffff"/>
</svg>
