<svg width="82" height="82" viewBox="0 0 82 82" fill="none" xmlns="http://www.w3.org/2000/svg">
<path d="M40 10.0202L0 0V72.3099L4 73.2712M40 10.0202L80 0V72.3099L76.4 73.2712M40 10.0202V80M40 80H4V73.2712M40 80L4 73.2712M40 80H76.4V73.2712M40 80L76.4 73.2712M6.8 10.0202V42.3301M6.8 10.0202L32.8 16.3107M6.8 10.0202L13.6 31.068M6.8 10.0202L26.4 29.9029M6.8 42.3301L32.8 48.1553M6.8 42.3301L26.4 29.9029M6.8 42.3301L13.6 31.068M32.8 48.1553V16.3107M32.8 48.1553L13.6 31.068M32.8 48.1553L26.4 29.9029M32.8 16.3107L26.4 29.9029M32.8 16.3107L13.6 31.068M6.8 48.932L25.2 53.2039M6.8 55.534L25.2 59.4408M6.8 61.3592L18.8 64.101M46.8 15.1456L67.2 10.0971V16.3107M46.8 15.1456V21.3592L67.2 16.3107M46.8 15.1456L67.2 16.3107M46.8 26.0194L74.6429 19.4175M46.8 26.0194V48.1553M46.8 26.0194L59.2 29.9029M74.6429 19.4175L63.3432 31.068M74.6429 19.4175V41.5534M46.8 48.1553L74.6429 41.5534M46.8 48.1553L59.2 35.3398M74.6429 41.5534L59.2 35.3398M59.2 35.3398V29.9029M59.2 35.3398L63.3432 31.068M47.2 55.534L67.2 51.2621M47.2 63.301L67.2 58.6408M47.2 70.2913L67.2 65.6311M30.4 61.3592L26.4 65.6311L30.4 72.1748M30.4 61.3592L34 67.1845L30.4 72.1748M30.4 61.3592V72.1748M59.2 29.9029L63.3432 31.068" transform="translate(1.3252 0.717773)" stroke="#ffffff"/>
</svg>
