<?xml version="1.0" encoding="utf-8"?>
<svg version="1.1" id="Слой_1" xmlns="http://www.w3.org/2000/svg" width="18" xmlns:xlink="http://www.w3.org/1999/xlink" x="0px" y="0px"
	 viewBox="0 0 28.5 65.8" style="enable-background:new 0 0 28.5 65.8;" xml:space="preserve">
<g fill="#ffffff">
	<path class="st6" d="M16,9.6c-1.1,1.1-2.4,1.7-3.9,1.7c-1.5,0-2.9-0.6-4-1.7s-1.7-2.4-1.7-4s0.6-2.9,1.7-4c1.1-1.1,2.4-1.7,4-1.7
		C13.7,0,15,0.6,16,1.7c1.1,1.1,1.6,2.4,1.6,4S17.1,8.5,16,9.6z"/>
	<path class="st6" d="M1.9,14.6C0.6,15.7,0,17.2,0,19.1v16.8c0,0.9,0.4,1.5,1.1,1.9c0.7,0.4,1.4,0.4,2.1,0c0.7-0.4,1-1,1-1.9V19.7
		h1.3V63c0,1.9,0.9,2.8,2.7,2.8s2.7-0.9,2.7-2.8V37.3V12.8h-4C4.9,12.8,3.2,13.4,1.9,14.6z"/>
	<path class="st6" d="M28.4,33.2l-5.4-14c-0.3-1.6-1.1-3-2.5-4.4c-1.4-1.3-3-2-4.8-2h-3.4v32.3c0.9,0,1.3,0.1,1.3,0.3V63
		c0,0.7,0.3,1.3,0.8,1.9c0.5,0.6,1.1,0.9,1.9,0.9c0.7,0,1.3-0.3,1.9-0.9c0.6-0.6,0.9-1.2,0.9-1.9V45.4h5.2c0.3,0,0.6-0.2,0.9-0.5
		c0.4-0.3,0.5-0.6,0.5-0.9v-0.1v-1.2l-7.9-22.1c-0.1,0-0.1,0-0.1-0.1c0-0.4,0.2-0.7,0.7-0.7c0.3,0,0.4,0.2,0.5,0.5l5.4,14.2
		c0.4,0.9,1.4,1.3,2.9,1.3c0.5,0,0.9-0.4,1.1-1.1C28.5,34,28.5,33.5,28.4,33.2z"/>
</g>
</svg>
