<svg id="Слой_1" data-name="Слой 1" xmlns="http://www.w3.org/2000/svg" xmlns:xlink="http://www.w3.org/1999/xlink" height="100" viewBox="0 0 411.62 541.9"><defs><style>.cls-1{fill:url(#Безымянный_градиент_13);}</style><linearGradient id="Безымянный_градиент_13" x1="205.81" y1="541.9" x2="205.81" gradientUnits="userSpaceOnUse"><stop offset="0" stop-color="#ff3429"/><stop offset="1" stop-color="#941840"/></linearGradient></defs><title>comment</title><path class="cls-1" d="M411.05,466a86.1,86.1,0,0,0-14.3-9.4c-18.7-9.5-37.3-19.1-56-28.6-15.7-8-31.6-15.8-47.1-24.1-13.4-7.2-20.7-18.3-21.1-32.9-.3-12.8-.1-25.6-.1-38.3a6.4,6.4,0,0,1,1.3-3.7c18.7-23.2,32.2-48.7,39.6-77a3.68,3.68,0,0,1,1.5-2.2c9.8-6.6,14.6-15.6,14.7-26.9q.15-20.55,0-41.1a30.29,30.29,0,0,0-10.1-23,4.1,4.1,0,0,1-1.3-3.4v-59c0-.8.1-2.1.1-2.8a81.44,81.44,0,0,0-1.1-19.1c-3.1-17.4-10.9-32.6-24.4-45.1a97.34,97.34,0,0,0-31.2-18.9C244.25,3.9,226.05.9,207.35,0h-2.9c-18.7.9-37,3.8-54.4,10.6a97.34,97.34,0,0,0-31.2,18.9c-13.5,12.5-21.3,27.6-24.4,45.1a81.44,81.44,0,0,0-1.1,19.1,27.15,27.15,0,0,1,.1,2.8v59a4.1,4.1,0,0,1-1.3,3.4,30.29,30.29,0,0,0-10.1,23q-.15,20.55,0,41.1c.1,11.2,4.9,20.2,14.7,26.9a3.41,3.41,0,0,1,1.5,2.2c7.4,28.3,20.9,53.8,39.6,77a5.58,5.58,0,0,1,1.3,3.7c0,12.8.2,25.6-.1,38.3-.4,14.5-7.6,25.7-21.1,32.9-15.6,8.3-31.4,16.1-47.1,24.1-18.7,9.5-37.3,19.1-56,28.6a90.45,90.45,0,0,0-14.3,9.4h0a1.4,1.4,0,0,0,.1,2.3c5.2,3.8,10.2,7.6,15.4,11.2a351.64,351.64,0,0,0,131.8,55.7,335.69,335.69,0,0,0,45.8,6l12.1.6h.2l12.1-.6a335.69,335.69,0,0,0,45.8-6q72.3-14.55,131.8-55.7c5.2-3.6,10.2-7.4,15.4-11.2a1.56,1.56,0,0,0,0-2.4Z"/></svg>