<?xml version="1.0" encoding="utf-8"?>
<svg version="1.1" id="Слой_1" xmlns="http://www.w3.org/2000/svg" width="33" xmlns:xlink="http://www.w3.org/1999/xlink" x="0px" y="0px"
	 viewBox="0 0 48.8 64.3" style="enable-background:new 0 0 48.8 64.3;" xml:space="preserve">
<path fill="#ffffff" d="M48.8,55.3c-0.5-0.4-1.1-0.8-1.7-1.1c-2.2-1.1-4.4-2.3-6.6-3.4c-1.9-0.9-3.7-1.9-5.6-2.9c-1.6-0.9-2.5-2.2-2.5-3.9
	c0-1.5,0-3,0-4.5c0-0.2,0.1-0.3,0.2-0.4c2.2-2.8,3.8-5.8,4.7-9.1c0-0.1,0.1-0.2,0.2-0.3c1.2-0.8,1.7-1.9,1.7-3.2c0-1.6,0-3.2,0-4.9
	c0-1.1-0.4-2-1.2-2.7c-0.1-0.1-0.2-0.2-0.2-0.4c0-2.3,0-4.7,0-7c0-0.1,0-0.2,0-0.3c0-0.8,0-1.5-0.1-2.3c-0.4-2.1-1.3-3.9-2.9-5.3
	c-1.1-1-2.3-1.7-3.7-2.2C29,0.5,26.8,0.1,24.6,0c-0.1,0-0.2,0-0.3,0l0,0c-2.2,0.1-4.4,0.5-6.5,1.3c-1.4,0.5-2.6,1.3-3.7,2.2
	c-1.6,1.5-2.5,3.3-2.9,5.3c-0.1,0.7-0.2,1.5-0.1,2.3c0,0.1,0,0.2,0,0.3c0,2.3,0,4.7,0,7c0,0.2,0,0.3-0.2,0.4
	c-0.8,0.7-1.2,1.7-1.2,2.7c0,1.6,0,3.2,0,4.9c0,1.3,0.6,2.4,1.7,3.2c0.1,0.1,0.2,0.1,0.2,0.3c0.9,3.4,2.5,6.4,4.7,9.1
	c0.1,0.1,0.2,0.3,0.2,0.4c0,1.5,0,3,0,4.5c0,1.7-0.9,3-2.5,3.9c-1.9,1-3.7,1.9-5.6,2.9C6.2,51.9,4,53,1.8,54.2
	c-0.6,0.3-1.2,0.7-1.7,1.1l0,0c-0.1,0.1-0.1,0.2,0,0.3c0.6,0.5,1.2,0.9,1.8,1.3c4.7,3.2,9.9,5.5,15.6,6.6c1.8,0.4,3.6,0.6,5.4,0.7
	c0.5,0,0.9,0,1.4,0.1c0,0,0,0,0,0c0.5,0,0.9,0,1.4-0.1c1.8-0.1,3.6-0.4,5.4-0.7c5.7-1.2,10.9-3.3,15.6-6.6c0.6-0.4,1.2-0.9,1.8-1.3
	C48.8,55.5,48.8,55.3,48.8,55.3L48.8,55.3z"/>
</svg>
