<?xml version="1.0" encoding="utf-8"?>
<!-- Generator: Adobe Illustrator 21.0.0, SVG Export Plug-In . SVG Version: 6.00 Build 0)  -->
<svg version="1.1" id="Слой_1" xmlns="http://www.w3.org/2000/svg" width="117" xmlns:xlink="http://www.w3.org/1999/xlink" x="0px" y="0px"
	 viewBox="0 0 85 71.3" style="enable-background:new 0 0 85 71.3;" xml:space="preserve">
<style type="text/css">
	.st0{fill:#AAAAAA;}
	.st1{fill:#0C0C0C;}
	.st2{fill:#211F20;}
	.st3{fill:#C8DAEA;}
	.st4{fill:#A9C9DD;}
	.st5{fill:url(#path2991_1_);}
	.st6{fill:#010002;}
	.st7{fill:#020202;}
</style>
<path id="path2993" class="st3" d="M32,67c-2.5,0-2.1-1-3-3.4l-7.4-24.5l46.1-28.8l5.4,1.4L68.6,24L32,67z"/>
<path id="path2989" class="st4" d="M32,67c2,0,2.8-0.9,3.9-2c1.7-1.6,23.5-22.8,23.5-22.8L46,39l-12.4,7.8L32,66.3V67z"/>
<linearGradient id="path2991_1_" gradientUnits="userSpaceOnUse" x1="-380.6722" y1="-115.9495" x2="-379.1085" y2="-113.4475" gradientTransform="matrix(10.4167 0 0 10.4167 4017.5134 1241.4126)">
	<stop  offset="0" style="stop-color:#EFF7FC"/>
	<stop  offset="1" style="stop-color:#FFFFFF"/>
</linearGradient>
<path id="path2991" class="st5" d="M33.6,46.8l31.2,23.5c3.6,2,6.2,1,7.1-3.3L84.8,6.5c1.3-5.3-2-7.6-5.5-6.1L4,29.5
	c-5.1,2.1-5.1,5-0.9,6.2l19.4,6.1l44.8-28.2c2.1-1.3,3.2-0.4,2.5,0.8L33.6,46.8z"/>
</svg>
