<?xml version="1.0" encoding="utf-8"?>
<!-- Generator: Adobe Illustrator 21.0.0, SVG Export Plug-In . SVG Version: 6.00 Build 0)  -->
<svg version="1.1" id="Слой_1" xmlns="http://www.w3.org/2000/svg" width="97" xmlns:xlink="http://www.w3.org/1999/xlink" x="0px" y="0px"
	 viewBox="0 0 70.5 85.3" style="enable-background:new 0 0 70.5 85.3;" xml:space="preserve">
<g fill="#ffffff">
	<path d="M69.3,44.1c-0.4-1.9-1.3-3.4-2.7-4.7c-1.4-1.3-3-2-4.9-2.2c-5.8-0.6-14.6-1-26.4-1c-11.8,0-20.6,0.3-26.4,1
		c-1.9,0.2-3.5,1-4.9,2.2c-1.4,1.3-2.3,2.8-2.8,4.7C0.4,47.7,0,53.3,0,60.7c0,7.5,0.4,13.1,1.2,16.7c0.4,1.9,1.3,3.4,2.7,4.7
		c1.4,1.3,3,2,4.9,2.2c5.8,0.7,14.6,1,26.4,1c11.8,0,20.6-0.3,26.4-1c1.8-0.2,3.5-0.9,4.9-2.2c1.4-1.3,2.3-2.8,2.8-4.7
		c0.8-3.7,1.2-9.2,1.2-16.7C70.5,53.2,70.1,47.6,69.3,44.1z M20.1,48.9H15v27.1h-4.8V48.9h-5v-4.5h14.8V48.9z M33,75.9h-4.2v-2.6
		c-1.7,1.9-3.3,2.9-4.9,2.9c-1.5,0-2.4-0.6-2.8-1.8c-0.3-0.8-0.4-1.9-0.4-3.5V52.4H25v17.3c0,1,0,1.6,0,1.7c0.1,0.7,0.4,1,1,1
		c0.9,0,1.8-0.7,2.7-2v-18H33V75.9z M49.1,68.9c0,2.3-0.1,3.9-0.4,4.8c-0.5,1.7-1.7,2.6-3.4,2.6c-1.5,0-3-0.9-4.4-2.6v2.3h-4.2V44.4
		h4.2v10.3c1.4-1.7,2.8-2.6,4.4-2.6c1.7,0,2.8,0.9,3.4,2.7c0.3,0.8,0.4,2.4,0.4,4.7V68.9z M65.2,65h-8.5v4.1c0,2.2,0.7,3.3,2.2,3.3
		c1,0,1.7-0.6,1.9-1.7c0.1-0.3,0.1-1.3,0.1-2.9h4.3v0.6c0,1.6,0,2.5-0.1,2.8c-0.1,0.9-0.4,1.7-1,2.6c-1.1,1.7-2.9,2.5-5.1,2.5
		c-2.2,0-3.9-0.8-5.1-2.4c-0.9-1.2-1.4-3-1.4-5.5v-8.2c0-2.5,0.4-4.3,1.3-5.5c1.2-1.6,2.9-2.4,5.1-2.4c2.1,0,3.8,0.8,5,2.4
		c0.9,1.2,1.3,3,1.3,5.5V65z"/>
	<path d="M43.1,56c-0.7,0-1.4,0.4-2.1,1v14.3c0.7,0.7,1.4,1,2.1,1c1.2,0,1.9-1.1,1.9-3.2v-10C44.9,57.1,44.3,56,43.1,56z"/>
	<path d="M58.9,56c-1.4,0-2.1,1.1-2.1,3.2v2.2H61v-2.2C61,57.1,60.3,56,58.9,56z"/>
	<path d="M17.4,19v12.9h4.8V19l5.8-19H23l-3.2,12.5L16.4,0h-5c0.9,2.7,1.9,5.6,3.1,8.9C16,13.3,16.9,16.6,17.4,19z"/>
	<path d="M34.3,32.2c2.2,0,3.9-0.8,5-2.4c0.9-1.2,1.3-3,1.3-5.6v-8.3c0-2.5-0.4-4.4-1.3-5.6c-1.2-1.6-2.9-2.4-5-2.4
		c-2.1,0-3.8,0.8-5,2.4c-0.9,1.2-1.3,3-1.3,5.6v8.3c0,2.5,0.4,4.4,1.3,5.6C30.5,31.4,32.1,32.2,34.3,32.2z M32.2,15
		c0-2.2,0.7-3.3,2-3.3c1.4,0,2,1.1,2,3.3v10c0,2.2-0.7,3.3-2,3.3c-1.4,0-2-1.1-2-3.3V15z"/>
	<path d="M47.3,32.2c1.6,0,3.2-1,4.9-2.9v2.6h4.3V8.1h-4.3v18.1c-0.9,1.4-1.9,2-2.7,2c-0.6,0-0.9-0.3-1-1c0-0.1,0-0.6,0-1.7V8.1
		h-4.3v18.7c0,1.6,0.1,2.8,0.4,3.6C44.9,31.6,45.9,32.2,47.3,32.2z"/>
</g>
</svg>
